<svg xmlns="http://www.w3.org/2000/svg" aria-hidden="true" style="position:absolute;width:0;height:0;overflow:hidden">
  <defs>
    <symbol id="icon-logo" viewBox="0 0 32 32">
      <path fill="#c1b9dc" style="fill: var(--color1, #c1b9dc)"
        d="M28.044 16.449c-0.829-0.911-2.087-1.516-3.541-1.704-0.435-0.056-0.887-0.078-1.372-0.066 0.282-0.112 0.554-0.231 0.818-0.357 0.977-0.467 3.272-1.799 3.49-4.078 0.096-1.007-0.281-2.004-0.985-2.603-0.582-0.495-1.399-0.746-2.303-0.708-1.231 0.051-2.502 0.627-3.579 1.621-1.022 0.943-1.753 2.123-2.333 3.152-0.19 0.337-0.377 0.682-0.557 1.017-0.026 0.048-0.052 0.097-0.079 0.145 0.467-1.41 0.786-2.722 0.896-4.072 0.088-1.079 0.093-3.733-1.766-5.069-0.822-0.59-1.873-0.766-2.745-0.459-0.72 0.254-1.35 0.834-1.772 1.633-0.575 1.089-0.718 2.477-0.401 3.909 0.138 0.622 0.349 1.216 0.595 1.775-0.354-0.443-0.749-0.872-1.195-1.257-1.11-0.958-2.399-1.491-3.631-1.501-0.907-0.007-1.713 0.271-2.278 0.785-0.684 0.621-1.028 1.631-0.898 2.634 0.294 2.271 2.633 3.525 3.624 3.96 0.246 0.108 0.499 0.209 0.76 0.305-0.544 0.008-1.043 0.056-1.519 0.144-1.441 0.266-2.664 0.938-3.444 1.892-0.572 0.7-0.861 1.505-0.814 2.268 0.056 0.922 0.628 1.822 1.492 2.349 1.955 1.192 4.397 0.154 5.357-0.347l0.009-0.004c-0.677 0.922-1.982 3.083-1.155 5.136 0.378 0.939 1.172 1.65 2.072 1.857 0.199 0.046 0.405 0.068 0.615 0.068 0.576 0 1.181-0.17 1.756-0.499 1.069-0.612 1.933-1.708 2.432-3.086 0.122-0.336 0.224-0.691 0.309-1.069 0.266 1.156 1.040 3.445 3.065 4.162 0.954 0.337 2.013 0.213 2.764-0.325 0.621-0.445 1.063-1.177 1.245-2.063 0.248-1.207-0.002-2.579-0.706-3.865-0.345-0.63-0.772-1.201-1.209-1.705 0.401 0.232 0.795 0.436 1.188 0.616 0.985 0.449 3.48 1.354 5.368 0.059 0.834-0.573 1.357-1.502 1.363-2.426 0.006-0.764-0.326-1.552-0.935-2.221z">
      </path>
      <path fill="#ffe15c" style="fill: var(--color2, #ffe15c)"
        d="M14.101 14.95c-0.218 0.397-0.302 0.848-0.258 1.286 0.045 0.448 0.224 0.882 0.531 1.23 0.11 0.124 0.229 0.231 0.356 0.321 0.418 0.298 0.915 0.416 1.398 0.382 0.517-0.036 1.019-0.244 1.395-0.589 0.419-0.384 0.68-0.938 0.628-1.61-0.008-0.105-0.023-0.209-0.045-0.312-0.126-0.597-0.478-1.158-1.003-1.502-0.041-0.027-0.083-0.052-0.126-0.076-0.181-0.101-0.38-0.178-0.595-0.224-0.601-0.127-1.212 0.041-1.685 0.403-0.037 0.029-0.074 0.059-0.11 0.090-0.194 0.169-0.36 0.372-0.486 0.601z">
      </path>
      <path fill="#712222" style="fill: var(--color3, #712222)"
        d="M15.775 9.816c0.011-0.082-0.046-0.158-0.129-0.169s-0.158 0.046-0.169 0.129c-0.184 1.352-0.179 2.741 0.008 4.1 0.097-0.025 0.196-0.043 0.296-0.053-0.182-1.328-0.186-2.685-0.007-4.006z">
      </path>
      <path fill="#712222" style="fill: var(--color3, #712222)"
        d="M18.518 23.172c0.011 0.075 0.075 0.128 0.149 0.128 0.007 0 0.015-0.001 0.022-0.002 0.082-0.012 0.139-0.089 0.127-0.171-0.271-1.822-0.843-3.615-1.675-5.267-0.009 0.005-0.018 0.010-0.027 0.015l-0.017 0.010c-0.012 0.006-0.023 0.013-0.035 0.019l-0.018 0.009c-0.007 0.004-0.014 0.007-0.022 0.011l-0.022 0.011-0.022 0.010-0.022 0.010-0.021 0.010-0.022 0.010-0.022 0.009-0.021 0.009c0.817 1.624 1.38 3.387 1.647 5.178z">
      </path>
      <path fill="#712222" style="fill: var(--color3, #712222)"
        d="M12.816 22.416c0.028 0.024 0.063 0.035 0.097 0.035 0.043 0 0.085-0.018 0.115-0.054 1.064-1.263 1.924-2.717 2.525-4.262-0.099-0.019-0.197-0.044-0.293-0.077-0.589 1.502-1.427 2.916-2.463 4.145-0.054 0.064-0.045 0.158 0.018 0.212z">
      </path>
      <path fill="#712222" style="fill: var(--color3, #712222)"
        d="M21.718 12.308c-0.032-0.077-0.12-0.113-0.196-0.081-1.409 0.583-2.738 1.392-3.914 2.375 0.064 0.078 0.123 0.159 0.176 0.244 1.156-0.97 2.465-1.768 3.852-2.342 0.077-0.032 0.113-0.12 0.081-0.196z">
      </path>
      <path fill="#aa90c3" style="fill: var(--color4, #aa90c3)"
        d="M5.998 9.38c0.667-0.338 1.324-0.334 2.132-0.2 0.73 0.121 1.413 0.377 2.029 0.774 1.504 0.968 2.264 2.027 3.501 3.661 0.236 0.312 0.474 0.631 0.71 0.952 0.025-0.029 0.051-0.057 0.077-0.084-0.18-0.299-0.356-0.598-0.528-0.894-0.191-0.327-0.388-0.664-0.588-0.992-0.599-0.985-1.348-2.109-2.361-2.984-1.042-0.899-2.246-1.4-3.388-1.41-0.809-0.009-1.527 0.237-2.022 0.687-0.594 0.54-0.892 1.424-0.778 2.307 0.006 0.043 0.012 0.085 0.019 0.127 0.115-0.789 0.457-1.569 1.198-1.944z">
      </path>
      <path fill="#712222" style="fill: var(--color3, #712222)"
        d="M10.38 12.947c-0.078-0.029-0.165 0.010-0.194 0.088s0.010 0.165 0.088 0.194c1.312 0.493 2.562 1.182 3.689 2.027 0.035-0.096 0.076-0.191 0.125-0.282-1.135-0.844-2.391-1.532-3.708-2.027z">
      </path>
      <path fill="#712222" style="fill: var(--color3, #712222)"
        d="M9.638 18.558c-0.072 0.042-0.095 0.135-0.053 0.206 0.028 0.047 0.078 0.074 0.13 0.074 0.026 0 0.053-0.007 0.077-0.021 1.333-0.79 2.806-1.372 4.326-1.712-0.051-0.090-0.095-0.183-0.132-0.279-1.527 0.349-3.006 0.937-4.347 1.732z">
      </path>
      <path fill="#712222" style="fill: var(--color3, #712222)"
        d="M22.249 18.116c0.054 0 0.107-0.029 0.134-0.081 0.038-0.074 0.010-0.165-0.064-0.203-1.305-0.681-2.723-1.171-4.176-1.448l-0 0.001c-0.002 0.012-0.003 0.025-0.005 0.037-0.003 0.021-0.006 0.043-0.010 0.064-0.002 0.014-0.005 0.028-0.008 0.042s-0.006 0.028-0.009 0.042c-0.002 0.007-0.003 0.014-0.005 0.021-0.003 0.014-0.006 0.027-0.010 0.041s-0.007 0.027-0.011 0.041l-0.002 0.007c1.425 0.271 2.816 0.752 4.095 1.42 0.022 0.012 0.046 0.017 0.070 0.017z">
      </path>
      <path fill="#aa90c3" style="fill: var(--color4, #aa90c3)"
        d="M24.455 15.118c-0.833-0.108-1.733-0.085-2.832 0.071-0.098 0.014-0.19-0.050-0.21-0.147l-0.003-0.020c-0.009-0.089 0.046-0.175 0.135-0.2 0.832-0.242 1.566-0.517 2.243-0.84 0.919-0.439 3.078-1.687 3.278-3.775 0.085-0.887-0.243-1.76-0.854-2.28-0.51-0.433-1.236-0.653-2.044-0.619-0.822 0.034-1.667 0.324-2.454 0.832 0.162-0.058 0.327-0.111 0.494-0.155 0.763-0.202 1.578-0.138 2.261 0.279 0.735 0.449 1.423 1.256 1.384 2.127-0.039 0.873-0.363 1.409-1.044 2.242-0.357 0.437-1.18 0.934-1.755 1.267-0.235 0.136-1.5 0.753-2.49 1.226-1.15 0.155-2.006 0.325-2.474 0.46 0.017 0.072 0.032 0.144 0.042 0.217l0.001 0.008 0.002 0.012c1.157-0.059 4.266-0.581 6.205-0.228 0.897 0.163 1.681 0.573 2.223 1.188 0.287 0.326 0.49 0.733 0.5 1.173 0.009 0.398-0.138 0.773-0.371 1.090-0.539 0.732-1.453 1.058-2.336 1.058-0.977-0-1.882-0.318-2.811-0.588-0.488-0.142-0.488-0.147-1.123-0.357-0.405-0.134-0.732-0.284-1.327-0.658-0.456-0.287-1.082-0.781-1.452-1.040l-0.011 0.012c-0.018 0.019-0.037 0.038-0.056 0.057l-0.014 0.014c-0.010 0.009-0.019 0.018-0.029 0.027-0.019 0.018-0.039 0.036-0.059 0.053l-0.007 0.006c0.235 0.421 0.727 1.138 1.083 1.597 0.114 0.147 0.54 0.721 0.703 0.981 0.314 0.499 0.607 0.964 1.017 1.377 0.435 0.438 0.898 0.858 1.272 1.352 0.143 0.189 0.278 0.4 0.341 0.631 0.097 0.354 0.054 0.76-0.046 1.108-0.245 0.849-0.861 1.556-1.668 1.912-0.372 0.164-0.789 0.236-1.189 0.139-0.364-0.089-0.685-0.306-0.94-0.576-0.285-0.303-0.503-0.662-0.678-1.038-0.124-0.267-0.201-0.554-0.285-0.836-0.181-0.602-0.298-1.649-0.422-2.276-0.113-0.572-0.335-2.819-0.432-3.84-0.008 0.001-0.016 0.002-0.025 0.003-0.013 0.001-0.026 0.002-0.039 0.003-0.021 0.002-0.042 0.003-0.063 0.004-0.020 0.001-0.039 0.002-0.059 0.003s-0.041 0.001-0.061 0.001c-0.020 0-0.041-0-0.061-0.001-0.322 1.004-0.815 3.114-0.984 3.599-0.188 0.54-0.33 1.274-0.522 1.952-0.084 0.297-0.286 0.716-0.394 1.007-0.149 0.4-0.377 0.769-0.644 1.101-0.536 0.666-1.329 1.27-2.214 1.313-0.314 0.015-0.649-0.055-0.905-0.243-0.204-0.149-0.338-0.375-0.402-0.617-0.147-0.557-0.014-1.171 0.139-1.712 0.146-0.52 0.344-1.023 0.533-1.528 0.108-0.288 0.255-0.555 0.371-0.841 0.174-0.432 0.571-0.891 0.726-1.112 0.477-0.677 0.959-1.251 1.399-1.725 0.773-0.832 1.42-1.357 1.694-1.595l-0.012-0.009c-0.035-0.026-0.069-0.053-0.103-0.081-1.072 0.435-4.309 2.557-5.236 3.033-0.706 0.362-1.438 0.647-2.176 0.916-0.373 0.136-0.771 0.216-1.168 0.18-0.341-0.030-0.679-0.121-0.987-0.27-0.963-0.463-1.473-1.463-1.567-2.491-0.061 0.247-0.086 0.494-0.071 0.735 0.049 0.801 0.552 1.587 1.312 2.051 1.791 1.092 4.084 0.112 4.986-0.36 0.281-0.147 0.568-0.311 0.853-0.489 0.031-0.019 0.065-0.028 0.099-0.028 0.053 0 0.106 0.023 0.143 0.066 0.060 0.071 0.060 0.175-0.001 0.245-0.192 0.222-0.375 0.448-0.544 0.671-0.614 0.813-1.957 2.914-1.174 4.86 0.333 0.826 1.025 1.451 1.808 1.631 0.652 0.15 1.398 0.011 2.099-0.39 0.992-0.568 1.796-1.593 2.265-2.888 0.22-0.607 0.374-1.278 0.472-2.051 0.012-0.094 0.091-0.164 0.186-0.165h0.001c0.094 0 0.174 0.069 0.186 0.163 0.039 0.282 0.086 0.56 0.14 0.825 0.204 0.998 0.891 3.395 2.868 4.095 0.84 0.297 1.767 0.191 2.419-0.276 0.544-0.39 0.933-1.040 1.096-1.833 0.23-1.119-0.007-2.401-0.668-3.609-0.623-1.138-1.535-2.084-2.261-2.782-0.071-0.068-0.077-0.18-0.015-0.255s0.173-0.091 0.254-0.034c0.867 0.614 1.68 1.091 2.487 1.459 0.927 0.423 3.269 1.278 4.998 0.091 0.734-0.504 1.194-1.316 1.2-2.119 0.005-0.669-0.292-1.367-0.837-1.965-0.769-0.845-1.945-1.408-3.31-1.584z">
      </path>
      <path fill="#aa90c3" style="fill: var(--color4, #aa90c3)"
        d="M15.286 3.896c1.405 0.6 1.756 2.109 2.028 3.641 0.117 0.66 0.216 1.883-0.068 4.583-0.035 0.329-0.121 0.796-0.219 1.272 0.578-1.634 0.974-3.11 1.099-4.627 0.083-1.015 0.092-3.509-1.611-4.733-0.723-0.52-1.643-0.677-2.4-0.41-0.095 0.034-0.189 0.074-0.28 0.12 0.489-0.076 0.992-0.043 1.452 0.153z">
      </path>
      <path fill="#712222" style="fill: var(--color3, #712222)"
        d="M28.044 16.449c-0.829-0.911-2.087-1.516-3.541-1.704-0.435-0.056-0.886-0.078-1.372-0.066 0.282-0.112 0.554-0.231 0.818-0.357 0.977-0.467 3.272-1.799 3.49-4.078 0.096-1.007-0.281-2.004-0.985-2.603-0.582-0.495-1.399-0.746-2.303-0.708-1.231 0.051-2.502 0.627-3.579 1.621-1.022 0.943-1.753 2.123-2.333 3.152-0.19 0.337-0.377 0.683-0.558 1.017-0.026 0.048-0.052 0.096-0.078 0.145 0.467-1.41 0.786-2.723 0.896-4.073 0.088-1.079 0.093-3.733-1.766-5.069-0.822-0.59-1.873-0.766-2.745-0.459-0.72 0.254-1.349 0.834-1.771 1.633-0.575 1.089-0.718 2.477-0.401 3.909 0.138 0.622 0.349 1.216 0.595 1.775-0.354-0.443-0.749-0.872-1.195-1.257-1.11-0.958-2.399-1.491-3.631-1.501-0.907-0.008-1.713 0.271-2.278 0.785-0.684 0.621-1.028 1.631-0.898 2.634 0.294 2.271 2.633 3.525 3.624 3.96 0.246 0.108 0.499 0.209 0.76 0.305-0.544 0.008-1.043 0.056-1.519 0.144-1.441 0.266-2.664 0.938-3.444 1.892-0.572 0.7-0.861 1.505-0.814 2.268 0.056 0.922 0.628 1.822 1.492 2.349 1.955 1.192 4.397 0.154 5.357-0.348l0.009-0.004c-0.677 0.922-1.982 3.083-1.155 5.136 0.378 0.939 1.172 1.65 2.072 1.857 0.199 0.046 0.405 0.068 0.615 0.068 0.575 0 1.181-0.17 1.756-0.499 1.069-0.612 1.933-1.708 2.432-3.086 0.122-0.336 0.224-0.691 0.309-1.069 0.266 1.156 1.040 3.445 3.065 4.162 0.954 0.337 2.013 0.213 2.764-0.325 0.621-0.445 1.063-1.177 1.245-2.063 0.248-1.207-0.002-2.579-0.706-3.865-0.345-0.63-0.772-1.201-1.209-1.705 0.4 0.232 0.795 0.436 1.188 0.616 0.985 0.449 3.48 1.354 5.367 0.059 0.834-0.573 1.357-1.502 1.363-2.426 0.006-0.764-0.326-1.552-0.935-2.221zM28.603 18.667c-0.006 0.803-0.466 1.615-1.2 2.119-1.729 1.187-4.072 0.332-4.998-0.091-0.807-0.368-1.62-0.845-2.487-1.459-0.080-0.057-0.191-0.042-0.254 0.034s-0.056 0.187 0.015 0.255c0.726 0.697 1.639 1.644 2.261 2.782 0.661 1.208 0.898 2.489 0.668 3.609-0.163 0.792-0.552 1.443-1.096 1.833-0.652 0.468-1.579 0.574-2.419 0.276-1.977-0.7-2.664-3.097-2.868-4.095-0.054-0.265-0.101-0.542-0.14-0.825-0.013-0.093-0.092-0.163-0.186-0.163h-0.001c-0.094 0-0.174 0.071-0.186 0.165-0.098 0.773-0.252 1.444-0.472 2.051-0.469 1.294-1.273 2.32-2.265 2.888-0.702 0.402-1.447 0.54-2.099 0.39-0.782-0.18-1.475-0.805-1.808-1.631-0.783-1.946 0.56-4.047 1.174-4.86 0.169-0.223 0.351-0.449 0.544-0.671 0.061-0.070 0.061-0.175 0.001-0.245-0.037-0.043-0.090-0.066-0.143-0.066-0.034 0-0.069 0.009-0.099 0.028-0.284 0.177-0.571 0.342-0.853 0.489-0.903 0.472-3.196 1.452-4.986 0.36-0.76-0.464-1.263-1.25-1.312-2.051-0.015-0.241 0.010-0.488 0.071-0.735 0.108-0.436 0.332-0.872 0.659-1.272 0.723-0.885 1.867-1.51 3.22-1.76 0.83-0.153 1.736-0.179 2.85-0.080 0.099 0.009 0.185-0.059 0.202-0.155l0.002-0.015c0.009-0.091-0.049-0.175-0.139-0.199-0.761-0.203-1.439-0.436-2.073-0.714-0.914-0.4-3.043-1.535-3.383-3.536-0.007-0.042-0.014-0.084-0.019-0.127-0.114-0.883 0.184-1.767 0.778-2.307 0.495-0.45 1.212-0.696 2.022-0.687 1.143 0.010 2.346 0.51 3.388 1.41 1.013 0.875 1.762 1.999 2.361 2.984 0.199 0.328 0.397 0.666 0.588 0.992 0.173 0.296 0.348 0.595 0.528 0.894 0.122-0.126 0.257-0.237 0.404-0.33-0.187-0.318-0.378-0.632-0.567-0.941-0.197-0.323-0.401-0.657-0.595-0.988-0.583-0.994-1.217-2.187-1.506-3.494-0.297-1.344-0.167-2.641 0.366-3.652 0.321-0.607 0.77-1.071 1.284-1.334 0.091-0.047 0.185-0.087 0.28-0.12 0.757-0.267 1.677-0.11 2.4 0.41 1.704 1.224 1.694 3.717 1.611 4.733-0.124 1.517-0.521 2.993-1.099 4.627-0.070 0.199-0.143 0.399-0.218 0.603 0.162 0.073 0.312 0.165 0.448 0.272 0.264-0.453 0.513-0.914 0.756-1.364 0.18-0.333 0.366-0.677 0.555-1.012 0.566-1.004 1.277-2.153 2.26-3.061 0.283-0.261 0.58-0.492 0.886-0.69 0.786-0.508 1.631-0.798 2.454-0.832 0.807-0.034 1.534 0.186 2.044 0.619 0.612 0.52 0.939 1.393 0.854 2.28-0.2 2.088-2.359 3.335-3.278 3.775-0.677 0.324-1.411 0.599-2.243 0.84-0.088 0.026-0.144 0.111-0.135 0.2l0.003 0.020c0.021 0.096 0.113 0.161 0.21 0.147 1.099-0.156 1.999-0.179 2.832-0.071 1.365 0.176 2.541 0.739 3.311 1.584 0.544 0.598 0.842 1.296 0.837 1.965z">
      </path>
      <path fill="#fcc344" style="fill: var(--color5, #fcc344)"
        d="M17.563 14.634c-0.013 0.245-0.2 0.376-0.398 0.483-0.161 0.087-0.357 0.191-0.436 0.366-0.084 0.185 0.009 0.249 0.16 0.316 0.201 0.091 0.369 0.221 0.437 0.441 0.069 0.226 0.002 0.473-0.115 0.671-0.206 0.35-0.621 0.69-1.052 0.637-0.197-0.024-0.348-0.153-0.423-0.333-0.084-0.202-0.038-0.419-0.076-0.628-0.012-0.070-0.030-0.131-0.068-0.183 0.004 0.006-0.015-0.014-0.027-0.017-0.005-0.001-0.033-0.003-0.059 0.001-0.23 0.038-0.323 0.241-0.477 0.384-0.386 0.36-0.866 0.098-1.137-0.261 0.072 0.315 0.211 0.616 0.418 0.875l0.002 0.003c0.006 0.008 0.013 0.016 0.019 0.024l0.001 0.001c0.007 0.008 0.013 0.016 0.020 0.024l0.004 0.004c0.007 0.008 0.014 0.016 0.020 0.024 0.025 0.029 0.051 0.056 0.077 0.083 0.016 0.016 0.032 0.032 0.048 0.047 0.027 0.026 0.054 0.050 0.082 0.074l0.016 0.014c0.034 0.028 0.068 0.055 0.103 0.081l0.012 0.009 0.018 0.013c0.013 0.009 0.027 0.019 0.040 0.028 0.018 0.012 0.036 0.024 0.053 0.035l0.018 0.011c0.134 0.083 0.274 0.148 0.419 0.198 0.096 0.033 0.194 0.058 0.293 0.077 0.12 0.023 0.241 0.035 0.361 0.038 0.020 0 0.041 0.001 0.061 0.001s0.041-0 0.061-0.001c0.020-0.001 0.039-0.001 0.059-0.003 0.021-0.001 0.042-0.003 0.063-0.004 0.013-0.001 0.026-0.002 0.039-0.003 0.009-0.001 0.017-0.002 0.026-0.003l0.029-0.003 0.016-0.002 0.013-0.002 0.015-0.002 0.013-0.002 0.015-0.002 0.014-0.002 0.014-0.002 0.015-0.003 0.013-0.002 0.028-0.005c0.009-0.002 0.019-0.004 0.028-0.006l0.020-0.004c0.028-0.006 0.055-0.012 0.083-0.019 0.010-0.003 0.021-0.005 0.031-0.008l0.009-0.003c0.011-0.003 0.022-0.006 0.034-0.009 0.008-0.002 0.016-0.005 0.024-0.007 0.010-0.003 0.020-0.006 0.030-0.009 0.021-0.006 0.041-0.013 0.062-0.020 0.013-0.004 0.025-0.009 0.038-0.013s0.025-0.009 0.038-0.014c0.013-0.005 0.025-0.010 0.037-0.015l0.019-0.008 0.012-0.005 0.018-0.008 0.022-0.009 0.005-0.002 0.017-0.008 0.021-0.010 0.022-0.010 0.022-0.010 0.022-0.011c0.007-0.004 0.014-0.007 0.022-0.011l0.018-0.009c0.012-0.006 0.024-0.013 0.035-0.019l0.017-0.010c0.009-0.005 0.018-0.010 0.027-0.015s0.017-0.010 0.025-0.015c0.011-0.007 0.023-0.014 0.034-0.021 0.023-0.014 0.045-0.029 0.067-0.043 0.011-0.007 0.022-0.015 0.033-0.023l0.016-0.012c0.032-0.023 0.064-0.047 0.096-0.072 0.010-0.008 0.021-0.017 0.031-0.025s0.020-0.017 0.030-0.026 0.040-0.035 0.059-0.053c0.010-0.009 0.019-0.018 0.029-0.027l0.014-0.014c0.019-0.019 0.037-0.038 0.056-0.057 0.009-0.010 0.018-0.019 0.027-0.029 0.013-0.015 0.026-0.030 0.039-0.045s0.026-0.031 0.038-0.046c0.008-0.010 0.017-0.021 0.025-0.031 0.012-0.016 0.024-0.032 0.036-0.048s0.023-0.033 0.034-0.049l0.011-0.017c0.011-0.017 0.022-0.034 0.032-0.051 0.007-0.011 0.014-0.023 0.021-0.034s0.013-0.023 0.020-0.035c0.010-0.018 0.019-0.035 0.029-0.053l0.009-0.018c0.006-0.012 0.012-0.024 0.018-0.036l0.009-0.018c0.006-0.012 0.011-0.025 0.017-0.037 0.019-0.044 0.037-0.088 0.053-0.134 0.007-0.020 0.013-0.039 0.020-0.059l0.006-0.020 0.005-0.017 0.005-0.016 0.002-0.007c0.004-0.013 0.007-0.027 0.011-0.041s0.007-0.027 0.010-0.041c0.002-0.007 0.003-0.014 0.005-0.021 0.003-0.014 0.006-0.028 0.009-0.042s0.005-0.028 0.008-0.042c0.004-0.021 0.007-0.043 0.010-0.064 0.002-0.012 0.003-0.025 0.005-0.037l0.001-0.006c0.005-0.043 0.009-0.087 0.011-0.132 0.001-0.015 0.001-0.030 0.002-0.045 0.002-0.075 0-0.152-0.006-0.23-0.001-0.008-0.001-0.016-0.002-0.023l-0-0.005-0.002-0.019-0.001-0.006-0.002-0.018-0-0.005-0.002-0.019-0-0.003c-0.001-0.008-0.002-0.015-0.003-0.023l-0.002-0.018-0.001-0.004-0.002-0.016-0.001-0.008c-0.068-0.452-0.265-0.891-0.57-1.242 0.001 0.024 0.002 0.048 0 0.072z">
      </path>
      <path fill="#fff" style="fill: var(--color6, #fff)"
        d="M4.875 20.076c0.247 0.004 0.44-0.161 0.526-0.349s0.090-0.401 0.122-0.606c0.111-0.725 0.587-1.376 1.29-1.762 0.166-0.091 0.493-0.251 0.364-0.475-0.101-0.176-0.399-0.171-0.572-0.138-0.581 0.112-1.163 0.457-1.566 0.801-0.51 0.437-0.846 1.035-0.845 1.678 0.001 0.184 0.031 0.376 0.142 0.543s0.32 0.304 0.538 0.307z">
      </path>
      <path fill="#fff" style="fill: var(--color6, #fff)"
        d="M16.050 7.899c0.2-0.036 0.295-0.319 0.322-0.492 0.089-0.585-0.040-1.249-0.229-1.744-0.24-0.627-0.691-1.144-1.297-1.359-0.173-0.061-0.365-0.097-0.56-0.048s-0.394 0.199-0.47 0.403c-0.086 0.231 0.004 0.469 0.153 0.613s0.348 0.22 0.53 0.318c0.646 0.348 1.099 1.015 1.227 1.806 0.030 0.187 0.071 0.549 0.325 0.503z">
      </path>
      <path fill="#fff" style="fill: var(--color6, #fff)"
        d="M18.066 23.553c-0.079-0.166-0.214-0.492-0.439-0.38-0.176 0.088-0.189 0.377-0.167 0.546 0.075 0.569 0.375 1.153 0.685 1.563 0.393 0.519 0.953 0.88 1.576 0.915 0.178 0.010 0.366-0.008 0.534-0.106s0.313-0.292 0.329-0.503c0.018-0.239-0.13-0.436-0.308-0.53s-0.383-0.111-0.58-0.153c-0.696-0.149-1.298-0.648-1.632-1.351z">
      </path>
      <path fill="#fff" style="fill: var(--color6, #fff)"
        d="M15.877 15.097c0.31-0.232 0.436-0.587 0.282-0.791s-0.529-0.183-0.839 0.050c-0.31 0.232-0.436 0.587-0.282 0.791s0.529 0.183 0.839-0.050z">
      </path>
      <path fill="#fff" style="fill: var(--color6, #fff)"
        d="M14.481 16.034c0.125 0.099 0.346 0.027 0.494-0.159s0.168-0.419 0.043-0.517c-0.125-0.099-0.346-0.027-0.494 0.159s-0.168 0.419-0.043 0.517z">
      </path>
    </symbol>
    <symbol id="icon-basket" viewBox="0 0 36 32">
      <path stroke-linecap="round" stroke-miterlimit="10" stroke-width="2.37"
        d="M1.659 2.015h6.163M7.822 2.015 13.037 22.4M13.985 22.4h19.556M16.356 30.459a3.556 3.556 0 1 0 0-7.112 3.556 3.556 0 0 0 0 7.112zM29.985 30.459a3.556 3.556 0 1 0 0-7.112 3.556 3.556 0 0 0 0 7.112zM30.459 17.304H13.392c-.711 0-1.422-.474-1.541-1.185L9.599 8.178c-.237-1.067.474-2.015 1.541-2.015h21.452c1.067 0 1.896 1.067 1.541 2.015l-2.252 7.941c0 .711-.593 1.185-1.422 1.185z" />
    </symbol>
  </defs>
</svg>